<svg width="274" height="44" viewBox="0 0 274 44" fill="none" xmlns="http://www.w3.org/2000/svg">
<path d="M0.6 1.42C1.52 1.26 2.5 1.12 3.54 0.999997C4.62 0.839997 5.68 0.719997 6.72 0.639998C7.8 0.559999 8.84 0.499999 9.84 0.459997C10.84 0.419997 11.76 0.399998 12.6 0.399998C14.56 0.399998 16.48 0.579998 18.36 0.939998C20.28 1.3 21.98 1.92 23.46 2.8C24.98 3.68 26.18 4.9 27.06 6.46C27.98 7.98 28.44 9.9 28.44 12.22C28.44 15.66 27.64 18.46 26.04 20.62C24.44 22.78 22.3 24.28 19.62 25.12L22.56 26.98L32.16 43H22.68L13.14 26.56L8.82 25.78V43H0.6V1.42ZM13.2 7.72C12.36 7.72 11.52 7.74 10.68 7.78C9.88 7.82 9.26 7.9 8.82 8.02V20.2H12.3C14.58 20.2 16.4 19.68 17.76 18.64C19.12 17.6 19.8 15.88 19.8 13.48C19.8 11.68 19.24 10.28 18.12 9.28C17 8.24 15.36 7.72 13.2 7.72ZM44.0138 13V30.04C44.0138 32.48 44.2938 34.24 44.8538 35.32C45.4538 36.4 46.5938 36.94 48.2738 36.94C49.7538 36.94 50.9738 36.5 51.9338 35.62C52.9338 34.74 53.6738 33.66 54.1538 32.38V13H61.9538V33.88C61.9538 35.52 62.0338 37.14 62.1938 38.74C62.3538 40.3 62.5938 41.72 62.9138 43H57.0338L55.6538 38.56H55.4138C54.4938 40.08 53.2138 41.34 51.5738 42.34C49.9338 43.34 47.9938 43.84 45.7538 43.84C44.2338 43.84 42.8738 43.64 41.6738 43.24C40.4738 42.84 39.4738 42.18 38.6738 41.26C37.8738 40.34 37.2538 39.1 36.8138 37.54C36.4138 35.98 36.2138 34.02 36.2138 31.66V13H44.0138ZM67.6589 22C67.6589 15 69.1989 9.62 72.2789 5.86C75.3589 2.06 79.7589 0.159997 85.4789 0.159997C88.4789 0.159997 91.0989 0.679998 93.3389 1.72C95.5789 2.76 97.4389 4.24 98.9189 6.16C100.399 8.08 101.499 10.38 102.219 13.06C102.939 15.74 103.299 18.72 103.299 22C103.299 29 101.739 34.4 98.6189 38.2C95.5389 41.96 91.1589 43.84 85.4789 43.84C82.4389 43.84 79.7989 43.32 77.5589 42.28C75.3189 41.24 73.4589 39.76 71.9789 37.84C70.5389 35.92 69.4589 33.62 68.7389 30.94C68.0189 28.26 67.6589 25.28 67.6589 22ZM76.2989 22C76.2989 24.12 76.4789 26.08 76.8389 27.88C77.1989 29.64 77.7389 31.16 78.4589 32.44C79.2189 33.72 80.1789 34.72 81.3389 35.44C82.4989 36.16 83.8789 36.52 85.4789 36.52C88.3989 36.52 90.6589 35.38 92.2589 33.1C93.8589 30.82 94.6589 27.12 94.6589 22C94.6589 19.96 94.4789 18.06 94.1189 16.3C93.7989 14.54 93.2789 13 92.5589 11.68C91.8389 10.36 90.8989 9.34 89.7389 8.62C88.5789 7.86 87.1589 7.48 85.4789 7.48C82.5589 7.48 80.2989 8.66 78.6989 11.02C77.0989 13.34 76.2989 17 76.2989 22ZM127.294 31.72C127.294 30.44 126.814 29.4 125.854 28.6C124.934 27.8 123.754 27.08 122.314 26.44C120.914 25.76 119.374 25.08 117.694 24.4C116.054 23.68 114.514 22.82 113.074 21.82C111.674 20.78 110.494 19.5 109.534 17.98C108.614 16.46 108.154 14.52 108.154 12.16C108.154 10.12 108.494 8.36 109.174 6.88C109.854 5.36 110.814 4.1 112.054 3.1C113.334 2.1 114.834 1.36 116.554 0.879999C118.274 0.399998 120.194 0.159997 122.314 0.159997C124.754 0.159997 127.054 0.379998 129.214 0.819999C131.374 1.22 133.154 1.82 134.554 2.62L131.974 9.52C131.094 8.96 129.774 8.46 128.014 8.02C126.254 7.54 124.354 7.3 122.314 7.3C120.394 7.3 118.914 7.68 117.874 8.44C116.874 9.2 116.374 10.22 116.374 11.5C116.374 12.7 116.834 13.7 117.754 14.5C118.714 15.3 119.894 16.04 121.294 16.72C122.734 17.4 124.274 18.1 125.914 18.82C127.594 19.54 129.134 20.42 130.534 21.46C131.974 22.46 133.154 23.72 134.074 25.24C135.034 26.72 135.514 28.58 135.514 30.82C135.514 33.06 135.134 35 134.374 36.64C133.654 38.24 132.614 39.58 131.254 40.66C129.934 41.74 128.314 42.54 126.394 43.06C124.514 43.58 122.434 43.84 120.154 43.84C117.154 43.84 114.514 43.56 112.234 43C109.954 42.44 108.274 41.88 107.194 41.32L109.834 34.3C110.274 34.54 110.834 34.8 111.514 35.08C112.234 35.36 113.034 35.62 113.914 35.86C114.794 36.1 115.714 36.3 116.674 36.46C117.674 36.62 118.694 36.7 119.734 36.7C122.174 36.7 124.034 36.3 125.314 35.5C126.634 34.66 127.294 33.4 127.294 31.72ZM151.431 21.1L148.131 14.5H147.831L148.791 21.1V43H140.991V0.699997H146.991L162.891 23.08L166.071 29.5H166.371L165.411 23.08V0.999997H173.211V43.3H167.211L151.431 21.1ZM204.244 40.42C203.044 41.38 201.404 42.2 199.324 42.88C197.284 43.52 195.104 43.84 192.784 43.84C187.944 43.84 184.404 42.44 182.164 39.64C179.924 36.8 178.804 32.92 178.804 28C178.804 22.72 180.064 18.76 182.584 16.12C185.104 13.48 188.644 12.16 193.204 12.16C194.724 12.16 196.204 12.36 197.644 12.76C199.084 13.16 200.364 13.82 201.484 14.74C202.604 15.66 203.504 16.9 204.184 18.46C204.864 20.02 205.204 21.96 205.204 24.28C205.204 25.12 205.144 26.02 205.024 26.98C204.944 27.94 204.804 28.94 204.604 29.98H186.604C186.724 32.5 187.364 34.4 188.524 35.68C189.724 36.96 191.644 37.6 194.284 37.6C195.924 37.6 197.384 37.36 198.664 36.88C199.984 36.36 200.984 35.84 201.664 35.32L204.244 40.42ZM193.084 18.4C191.044 18.4 189.524 19.02 188.524 20.26C187.564 21.46 186.984 23.08 186.784 25.12H197.944C198.104 22.96 197.764 21.3 196.924 20.14C196.124 18.98 194.844 18.4 193.084 18.4ZM232.14 13L237.6 28.36L238.68 33.34H238.92L239.76 28.3L243.6 13H250.74L241.5 43.3H235.74L229.68 26.5L228.9 22.72H228.6L227.88 26.56L222.12 43.3H216.18L206.52 13H214.98L219.36 28.06L220.08 33.4H220.38L221.4 28L226.38 13H232.14ZM266.082 34.72C266.082 33.92 265.742 33.28 265.062 32.8C264.382 32.32 263.542 31.88 262.542 31.48C261.542 31.08 260.442 30.68 259.242 30.28C258.042 29.84 256.942 29.26 255.942 28.54C254.942 27.78 254.102 26.84 253.422 25.72C252.742 24.56 252.402 23.08 252.402 21.28C252.402 18.32 253.282 16.06 255.042 14.5C256.802 12.94 259.342 12.16 262.662 12.16C264.942 12.16 267.002 12.4 268.842 12.88C270.682 13.36 272.122 13.9 273.162 14.5L271.422 20.14C270.502 19.78 269.342 19.4 267.942 19C266.542 18.6 265.122 18.4 263.682 18.4C261.362 18.4 260.202 19.3 260.202 21.1C260.202 21.82 260.542 22.4 261.222 22.84C261.902 23.28 262.742 23.7 263.742 24.1C264.742 24.46 265.842 24.86 267.042 25.3C268.242 25.74 269.342 26.32 270.342 27.04C271.342 27.72 272.182 28.62 272.862 29.74C273.542 30.86 273.882 32.3 273.882 34.06C273.882 37.1 272.902 39.5 270.942 41.26C269.022 42.98 266.122 43.84 262.242 43.84C260.122 43.84 258.122 43.56 256.242 43C254.402 42.48 252.902 41.86 251.742 41.14L253.902 35.32C254.822 35.84 256.042 36.36 257.562 36.88C259.082 37.36 260.642 37.6 262.242 37.6C263.402 37.6 264.322 37.38 265.002 36.94C265.722 36.5 266.082 35.76 266.082 34.72Z" fill="white"/>
</svg>
